:FULLY-SPECIFIED
:FORCE-ALL-JOINTS-BE-3DOF
:DEGREES
747
root 4.01254 17.3023 14.3144 -173.925 -34.2842 182.826
lfemur -20.4029 -15.8701 -3.97803
ltibia 13.309 0 0
lfoot 8.75183 -14.9523 0
ltoes 17.9151 0 0
rfemur -26.8128 -31.0829 -8.06983
rtibia 129.806 0 0
rfoot 35.4436 11.0228 0
rtoes 32.5262 0 0
lowerback 0.010089 7.78337 1.43643
upperback -2.78245 10.3707 -1.34921
thorax -2.38744 5.12521 -2.3938
lowerneck -8.13209 -7.78461 -1.37192
upperneck -1.71841 -10.4078 3.11384
head 1.06419 -5.20146 0.829589
lclavicle 4.26199e-14 -5.86416e-14 0
lhumerus -56.3366 -18.3876 48.3911
lradius 48.5268 0 0
lwrist 20.4066 0 0
lhand -22.6321 -4.40145 0
lfingers 7.12502 0 0
lthumb 3.7983 25.5366 0
rclavicle 4.26199e-14 -5.86416e-14 0
rhumerus 36.8578 11.5137 -43.965
rradius 90.7757 0 0
rwrist -7.78308 0 0
rhand -29.5034 -30.6127 0
rfingers 7.12502 0 0
rthumb -2.83806 -780.557 0
748
root 3.96186 17.1604 14.5004 -174.343 -33.8031 181.99
lfemur -20.9984 -15.0675 -4.42063
ltibia 14.689 0 0
lfoot 7.73683 -14.3764 0
ltoes 17.7936 0 0
rfemur -26.8397 -30.9974 -7.36322
rtibia 128.905 0 0
rfoot 35.1143 10.6286 0
rtoes 32.7539 0 0
lowerback 0.147167 7.69243 1.27599
upperback -2.71816 10.2441 -1.40048
thorax -2.41414 5.06572 -2.36339
lowerneck -8.06115 -7.82036 -1.39919
upperneck -1.70144 -10.4499 3.20387
head 1.0666 -5.21833 0.863103
lclavicle 4.02249e-14 -5.70935e-14 0
lhumerus -55.8714 -18.2279 49.1275
lradius 48.7291 0 0
lwrist 20.2437 0 0
lhand -22.8457 -4.4948 0
lfingers 7.12502 0 0
lthumb 3.59203 25.4442 0
rclavicle 4.02249e-14 -5.70935e-14 0
rhumerus 35.6397 12.4195 -45.0392
rradius 90.7773 0 0
rwrist -7.48863 0 0
rhand -29.1834 -30.3287 0
rfingers 7.12502 0 0
rthumb -2.52904 -780.269 0
749
root 3.91118 17.0185 14.6865 -174.534 -32.6268 181.333
lfemur -21.8621 -13.8384 -5.10646
ltibia 16.6292 0 0
lfoot 6.21943 -13.4623 0
ltoes 17.6086 0 0
rfemur -26.8245 -30.9224 -6.29073
rtibia 127.464 0 0
rfoot 34.5027 9.99219 0
rtoes 32.8612 0 0
lowerback 0.328868 7.57327 1.05024
upperback -2.62608 10.0781 -1.48032
thorax -2.44305 4.98816 -2.3288
lowerneck -7.95543 -7.87019 -1.43353
upperneck -1.68436 -10.5081 3.33383
head 1.06679 -5.24149 0.910979
lclavicle 3.7033e-14 -5.4956e-14 0
lhumerus -55.338 -17.9791 50.3757
lradius 49.0935 0 0
lwrist 19.983 0 0
lhand -23.1356 -4.63212 0
lfingers 7.12502 0 0
lthumb 3.31208 25.308 0
rclavicle 3.7033e-14 -5.4956e-14 0
rhumerus 33.8228 13.8332 -46.7959
rradius 90.726 0 0
rwrist -7.02648 0 0
rhand -28.7225 -29.8899 0
rfingers 7.12502 0 0
rthumb -2.08395 -779.824 0
750
root 3.86051 16.8766 14.8725 -174.464 -30.6156 180.906
lfemur -23.0317 -12.1145 -6.07928
ltibia 19.1987 0 0
lfoot 4.11973 -12.1567 0
ltoes 17.3457 0 0
rfemur -26.7569 -30.871 -4.79558
rtibia 125.405 0 0
rfoot 33.5659 9.08465 0
rtoes 32.82 0 0
lowerback 0.559746 7.42463 0.750151
upperback -2.50235 9.87086 -1.59329
thorax -2.47347 4.89181 -2.29023
lowerneck -7.80981 -7.93673 -1.47555
upperneck -1.66777 -10.5856 3.50938
head 1.06421 -5.27224 0.975177
lclavicle 3.29356e-14 -5.217e-14 0
lhumerus -54.748 -17.6261 52.232
lradius 49.6487 0 0
lwrist 19.6079 0 0
lhand -23.5135 -4.82075 0
lfingers 7.12502 0 0
lthumb 2.94714 25.1207 0
rclavicle 3.29356e-14 -5.217e-14 0
rhumerus 31.3279 15.8419 -49.353
rradius 90.609 0 0
rwrist -6.36859 0 0
rhand -28.0995 -29.2701 0
rfingers 7.12502 0 0
rthumb -1.48238 -779.197 0
751
root 3.80983 16.7347 15.0586 -174.096 -27.6299 180.759
lfemur -24.545 -9.82739 -7.38284
ltibia 22.4665 0 0
lfoot 1.35783 -10.4061 0
ltoes 16.9905 0 0
rfemur -26.6264 -30.8562 -2.82103
rtibia 122.651 0 0
rfoot 32.2609 7.87714 0
rtoes 32.6024 0 0
lowerback 0.844352 7.24526 0.366696
upperback -2.34313 9.62061 -1.74395
thorax -2.5047 4.77595 -2.24791
lowerneck -7.61915 -8.02262 -1.52588
upperneck -1.65228 -10.6853 3.73619
head 1.05833 -5.31188 1.05766
lclavicle 2.78243e-14 -4.86762e-14 0
lhumerus -54.113 -17.1537 54.7924
lradius 50.4234 0 0
lwrist 19.1017 0 0
lhand -23.991 -5.06806 0
lfingers 7.12502 0 0
lthumb 2.48594 24.875 0
rclavicle 2.78243e-14 -4.86762e-14 0
rhumerus 28.076 18.5329 -52.8289
rradius 90.4137 0 0
rwrist -5.48693 0 0
rhand -27.2933 -28.443 0
rfingers 7.12502 0 0
rthumb -0.70393 -778.36 0
752
root 3.75915 16.5928 15.2446 -173.399 -23.53 180.943
lfemur -26.4397 -6.90869 -9.0609
ltibia 26.5014 0 0
lfoot -2.14616 -8.15719 0
ltoes 16.5287 0 0
rfemur -26.4227 -30.8911 -0.3103
rtibia 119.123 0 0
rfoot 30.5449 6.34079 0
rtoes 32.1803 0 0
lowerback 1.18724 7.0339 -0.109147
upperback -2.14456 9.32545 -1.93687
thorax -2.53605 4.63989 -2.20204
lowerneck -7.37834 -8.13049 -1.58513
upperneck -1.63851 -10.8105 4.01992
head 1.04862 -5.3617 1.16039
lclavicle 2.15905e-14 -4.44156e-14 0
lhumerus -53.4444 -16.5468 58.153
lradius 51.4461 0 0
lwrist 18.4475 0 0
lhand -24.5799 -5.38137 0
lfingers 7.12502 0 0
lthumb 1.91717 24.5636 0
rclavicle 2.15905e-14 -4.44156e-14 0
rhumerus 23.9876 21.9932 -57.3417
rradius 90.1277 0 0
rwrist -4.35346 0 0
rhand -26.2828 -27.3825 0
rfingers 7.12502 0 0
rthumb 0.271803 -777.287 0
753
root 3.70847 16.4509 15.4307 -172.335 -18.1763 181.509
lfemur -28.7536 -3.29002 -11.1572
ltibia 31.3725 0 0
lfoot -6.47216 -5.35662 0
ltoes 15.9459 0 0
rfemur -26.1354 -30.9888 2.79335
rtibia 114.746 0 0
rfoot 28.3747 4.44674 0
rtoes 31.5257 0 0
lowerback 1.59296 6.78927 -0.686401
upperback -1.90279 8.98354 -2.17662
thorax -2.56679 4.4829 -2.15285
lowerneck -7.08225 -8.26297 -1.65392
upperneck -1.62706 -10.9642 4.36625
head 1.03452 -5.42301 1.28533
lclavicle 1.41256e-14 -3.93291e-14 0
lhumerus -52.7538 -15.7902 62.41
lradius 52.7455 0 0
lwrist 17.6287 0 0
lhand -25.2919 -5.76804 0
lfingers 7.12502 0 0
lthumb 1.22955 24.1791 0
rclavicle 1.41256e-14 -3.93291e-14 0
rhumerus 18.9838 26.3102 -63.0095
rradius 89.7382 0 0
rwrist -2.94014 0 0
rhand -25.0469 -26.0623 0
rfingers 7.12502 0 0
rthumb 1.46522 -775.951 0
754
root 3.65779 16.3091 15.6167 -170.872 -11.429 182.507
lfemur -31.5245 1.09699 -13.7156
ltibia 37.1488 0 0
lfoot -11.7 -1.95099 0
ltoes 15.2278 0 0
rfemur -25.754 -31.1621 6.54669
rtibia 109.442 0 0
rfoot 25.7076 2.16614 0
rtoes 30.6105 0 0
lowerback 2.06607 6.51014 -1.37409
upperback -1.61397 8.593 -2.46774
thorax -2.59624 4.30428 -2.10056
lowerneck -6.72576 -8.42269 -1.73288
upperneck -1.61855 -11.1496 4.78084
head 1.01552 -5.4971 1.43444
lclavicle 5.32107e-15 -3.33576e-14 0
lhumerus -52.0529 -14.8689 67.6595
lradius 54.3503 0 0
lwrist 16.6285 0 0
lhand -26.1386 -6.23541 0
lfingers 7.12502 0 0
lthumb 0.411795 23.7143 0
rclavicle 5.32107e-15 -3.33576e-14 0
rhumerus 12.9852 31.5708 -69.9505
rradius 89.2326 0 0
rwrist -1.21895 0 0
rhand -23.5645 -24.4562 0
rfingers 7.12502 0 0
rthumb 2.89673 -774.327 0
755
root 3.60712 16.1672 15.8028 -168.975 -3.14863 183.988
lfemur -34.7901 6.32073 -16.7797
ltibia 43.8993 0 0
lfoot -17.9097 2.11307 0
ltoes 14.36 0 0
rfemur -25.2683 -31.4244 11.0065
rtibia 103.133 0 0
rfoot 22.5005 -0.529884 0
rtoes 29.4067 0 0
lowerback 2.61111 6.19522 -2.18124
upperback -1.27425 8.15198 -2.81482
thorax -2.6237 4.10331 -2.04537
lowerneck -6.30374 -8.61228 -1.82262
upperneck -1.61358 -11.3698 5.26935
head 0.991057 -5.58528 1.60969
lclavicle -4.93154e-15 -2.64419e-14 0
lhumerus -51.353 -13.7677 73.9976
lradius 56.2891 0 0
lwrist 15.4302 0 0
lhand -27.1318 -6.79083 0
lfingers 7.12502 0 0
lthumb -0.547396 23.1618 0
rclavicle -4.93154e-15 -2.64419e-14 0
rhumerus 5.91267 37.8624 -78.2828
rradius 88.5984 0 0
rwrist 0.838157 0 0
rhand -21.8143 -22.5381 0
rfingers 7.12502 0 0
rthumb 4.58674 -772.387 0
756
root 3.55644 16.0253 15.9888 -166.608 6.80459 186.003
lfemur -38.5881 12.4496 -20.3933
ltibia 51.6929 0 0
lfoot -25.1811 6.88895 0
ltoes 13.3281 0 0
rfemur -24.6677 -31.7884 16.2295
rtibia 95.7419 0 0
rfoot 18.7105 -3.67018 0
rtoes 27.8861 0 0
lowerback 3.23265 5.84328 -3.11687
upperback -0.879775 7.65863 -3.22241
thorax -2.64846 3.87929 -1.9875
lowerneck -5.81107 -8.83438 -1.92376
upperneck -1.61276 -11.6278 5.83745
head 0.960608 -5.68885 1.81303
lclavicle -1.67408e-14 -1.8523e-14 0
lhumerus -50.6658 -12.4716 81.5204
lradius 58.5906 0 0
lwrist 14.017 0 0
lhand -28.2831 -7.44164 0
lfingers 7.12502 0 0
lthumb -1.65931 22.5143 0
rclavicle -1.67408e-14 -1.8523e-14 0
rhumerus -2.313 45.2721 -88.1248
rradius 87.8229 0 0
rwrist 3.2592 0 0
rhand -19.7753 -20.2816 0
rfingers 7.12502 0 0
rthumb 6.55564 -770.106 0
757
root 3.50576 15.8834 16.1749 -163.738 18.5703 188.602
lfemur -42.9564 19.5519 -24.6002
ltibia 60.5986 0 0
lfoot -33.5941 12.43 0
ltoes 12.1179 0 0
rfemur -23.942 -32.2674 22.2724
rtibia 87.1918 0 0
rfoot 14.2947 -7.28362 0
rtoes 26.0209 0 0
lowerback 3.93523 5.45303 -4.19
upperback -0.426697 7.11109 -3.69508
thorax -2.66981 3.6315 -1.92717
lowerneck -5.24262 -9.09161 -2.03693
upperneck -1.6167 -11.9268 6.4908
head 0.923631 -5.80909 2.04643
lclavicle -3.02153e-14 -9.54166e-15 0
lhumerus -50.0029 -10.9653 90.3241
lradius 61.2835 0 0
lwrist 12.3722 0 0
lhand -29.6042 -8.19519 0
lfingers 7.12502 0 0
lthumb -2.93523 21.7644 0
rclavicle -3.02153e-14 -9.54166e-15 0
rhumerus -11.771 53.887 -99.5944
rradius 86.8935 0 0
rwrist 6.07223 0 0
rhand -17.4264 -17.6606 0
rfingers 7.12502 0 0
rthumb 8.82384 -767.456 0
758
root 3.42053 15.9019 16.2806 -161.418 20.9452 190.917
lfemur -43.3633 20.3222 -24.9388
ltibia 61.4156 0 0
lfoot -34.3399 13.213 0
ltoes 12.1365 0 0
rfemur -23.7323 -32.2341 22.9276
rtibia 85.7348 0 0
rfoot 13.2845 -8.14393 0
rtoes 25.0191 0 0
lowerback 3.96431 5.39971 -4.26402
upperback -0.389443 7.0392 -3.75359
thorax -2.65266 3.59744 -1.94637
lowerneck -5.18088 -9.08851 -2.03392
upperneck -1.63877 -11.9182 6.55043
head 0.909453 -5.80284 2.06753
lclavicle -2.99382e-14 -8.5402e-15 0
lhumerus -50.0292 -10.8172 91.3509
lradius 61.7323 0 0
lwrist 12.1691 0 0
lhand -29.6025 -8.25066 0
lfingers 7.12502 0 0
lthumb -2.93361 21.7086 0
rclavicle -2.99382e-14 -8.5402e-15 0
rhumerus -13.068 54.7362 -101.02
rradius 86.692 0 0
rwrist 6.38552 0 0
rhand -17.2645 -17.4018 0
rfingers 7.12502 0 0
rthumb 8.98017 -767.197 0
759
root 3.33529 15.9203 16.3864 -160.375 22.6038 191.951
lfemur -43.7104 20.9965 -25.2738
ltibia 62.1229 0 0
lfoot -35.0101 13.8481 0
ltoes 12.1243 0 0
rfemur -23.6195 -32.2897 23.4599
rtibia 84.788 0 0
rfoot 12.6732 -8.7197 0
rtoes 24.4904 0 0
lowerback 4.00328 5.36127 -4.34947
upperback -0.357455 6.98637 -3.80373
thorax -2.6479 3.57293 -1.95254
lowerneck -5.12949 -9.10512 -2.04201
upperneck -1.65265 -11.9361 6.60973
head 0.900902 -5.80968 2.08896
lclavicle -2.99195e-14 -7.77301e-15 0
lhumerus -50.0185 -10.7011 92.157
lradius 62.0494 0 0
lwrist 11.9812 0 0
lhand -29.6717 -8.32922 0
lfingers 7.12502 0 0
lthumb -3.00039 21.6308 0
rclavicle -2.99195e-14 -7.77301e-15 0
rhumerus -13.9966 55.4582 -102.089
rradius 86.5847 0 0
rwrist 6.64138 0 0
rhand -17.1042 -17.1627 0
rfingers 7.12502 0 0
rthumb 9.13501 -766.956 0
760
root 3.25006 15.9388 16.4921 -160.347 23.6701 191.966
lfemur -43.998 21.5768 -25.5944
ltibia 62.7184 0 0
lfoot -35.597 14.3534 0
ltoes 12.0924 0 0
rfemur -23.5855 -32.4156 23.8784
rtibia 84.268 0 0
rfoot 12.3885 -9.06326 0
rtoes 24.3389 0 0
lowerback 4.04799 5.33562 -4.44123
upperback -0.330985 6.95006 -3.84612
thorax -2.65293 3.55665 -1.94862
lowerneck -5.0878 -9.13678 -2.05869
upperneck -1.66022 -11.9743 6.66716
head 0.896857 -5.82664 2.11009
lclavicle -3.00504e-14 -7.21651e-15 0
lhumerus -49.9805 -10.615 92.7642
lradius 62.2554 0 0
lwrist 11.8087 0 0
lhand -29.7934 -8.42463 0
lfingers 7.12502 0 0
lthumb -3.11793 21.5372 0
rclavicle -3.00504e-14 -7.21651e-15 0
rhumerus -14.6078 56.0556 -102.845
rradius 86.5548 0 0
rwrist 6.84423 0 0
rhand -16.9519 -16.9459 0
rfingers 7.12502 0 0
rthumb 9.28207 -766.738 0
